PathFileType	4	(X/Y/Z)	C:/Users/opensim2020/Desktop/walking_exp_matlab/subject03_walking13_straight_03.trc	
DataRate	CameraRate	NumFrames	NumMarkers	Units	OrigDataRate	OrigDataStartFrame	OrigNumFrames	
100.00	100.00	9	46	mm	100.00	1809	209	
Frame#	Time	LFHD			RFHD			LBHD			RBHD			C7			T10			CLAV			STRN			RBAK			LSHO			LUPA			LELB			LFRM			LWRA			LWRB			LFIN			RSHO			RUPA			RELB			RFRM			RWRA			RWRB			RFIN			LASI			RASI			LPSI			RPSI			LTHI			LKNE			LTIB			LANK			LHEE			LTOE			RTHI			RKNE			RTIB			RANK			RHEE			RTOE			*39			*40			*41			*42			*43			*44			*45			
		X1	Y1	Z1	X2	Y2	Z2	X3	Y3	Z3	X4	Y4	Z4	X5	Y5	Z5	X6	Y6	Z6	X7	Y7	Z7	X8	Y8	Z8	X9	Y9	Z9	X10	Y10	Z10	X11	Y11	Z11	X12	Y12	Z12	X13	Y13	Z13	X14	Y14	Z14	X15	Y15	Z15	X16	Y16	Z16	X17	Y17	Z17	X18	Y18	Z18	X19	Y19	Z19	X20	Y20	Z20	X21	Y21	Z21	X22	Y22	Z22	X23	Y23	Z23	X24	Y24	Z24	X25	Y25	Z25	X26	Y26	Z26	X27	Y27	Z27	X28	Y28	Z28	X29	Y29	Z29	X30	Y30	Z30	X31	Y31	Z31	X32	Y32	Z32	X33	Y33	Z33	X34	Y34	Z34	X35	Y35	Z35	X36	Y36	Z36	X37	Y37	Z37	X38	Y38	Z38	X39	Y39	Z39	X40	Y40	Z40	X41	Y41	Z41	X42	Y42	Z42	X43	Y43	Z43	X44	Y44	Z44	X45	Y45	Z45	X46	Y46	Z46	

183	1.820	-991.00336	1124.60046	1615.53064	-861.10217	1096.75952	1611.37146	-1014.92346	1005.21649	1557.32190	-886.58386	982.83716	1553.35620	-969.88995	980.14526	1397.10144	-980.52887	959.57227	1084.41479	-951.69556	1103.59351	1325.84875	-960.56946	1155.35229	1162.49316	-896.27777	919.19562	1215.06482	-1109.75293	1082.83704	1370.06506	-1190.38477	1136.38464	1189.84888	-1202.86938	1190.69507	1079.42737	-1189.51685	1268.27026	975.70367	-1149.14343	1328.90845	877.64362	-1203.66333	1320.04846	874.88892	-1187.13098	1372.21362	812.07440	-800.60114	1028.61743	1336.64148	-746.56592	1011.87909	1109.32263	-738.60669	1020.98938	996.34418	-742.43750	1031.01831	859.48407	-773.09973	1067.00879	765.57770	-742.26868	1022.99579	758.79144	-746.23749	1048.45337	689.46259	-1094.80286	1128.44299	926.78540	-855.17023	1122.33789	919.10132	-1046.04419	965.69727	952.26794	-897.56561	962.53967	947.27026	-1133.13586	1027.60986	632.85199	-1095.79712	986.24017	459.28870	-1102.73206	889.88940	285.33066	-1065.21594	818.61652	85.65127	-1031.88013	770.50323	58.35674	-1035.90601	962.33850	29.15931	-816.10223	1132.59131	628.09216	-856.02435	1213.19287	469.75992	-858.00006	1227.51831	281.95340	-906.40460	1280.51538	71.27744	-965.53021	1252.99219	33.81312	-911.07196	1425.40967	67.03202	-956.39301	1026.38257	1662.23645																		 
184	1.830	-988.87891	1138.16138	1613.60999	-859.00543	1110.17371	1609.16504	-1013.12189	1018.80292	1555.48059	-884.74982	996.33081	1551.21472	-968.19037	993.42175	1395.06934	-978.06689	972.77386	1082.33105	-950.36780	1117.09180	1323.77332	-959.83472	1168.75183	1160.48926	-894.43933	932.60266	1213.07690	-1108.15564	1095.57300	1368.32410	-1188.68506	1151.09778	1189.39636	-1200.66956	1207.67822	1080.01892	-1186.37390	1288.08618	978.77856	-1144.77234	1351.64807	883.29333	-1199.16736	1342.93530	879.43640	-1181.97498	1397.47351	819.24170	-799.02930	1042.47314	1334.38135	-745.68652	1023.36572	1107.19385	-737.89166	1030.72437	994.10040	-741.68591	1037.31042	856.95923	-772.66205	1070.05078	761.82361	-741.44165	1026.65234	756.47797	-745.91034	1049.47351	686.04834	-1094.64001	1140.27478	925.01672	-854.41376	1137.25171	917.04364	-1043.44983	978.48138	950.20776	-894.80853	976.72479	945.03693	-1132.58569	1037.82837	632.15363	-1096.12048	995.04120	458.51120	-1103.01855	895.48297	286.27469	-1065.90979	820.05975	87.92204	-1032.62207	771.43793	61.75719	-1036.10034	962.51581	29.08209	-812.71588	1142.32092	623.99225	-856.37921	1225.17114	466.50464	-857.74854	1247.61743	281.05908	-905.02728	1310.66235	72.71061	-964.23676	1285.28320	33.71696	-908.62152	1455.97974	74.69682	-954.14600	1039.89258	1660.27527																		 
185	1.840	-986.64185	1151.68127	1611.73926	-856.87604	1123.51160	1607.03320	-1011.25067	1032.33521	1553.79407	-883.05823	1009.62903	1549.23657	-966.23474	1006.64044	1393.00256	-975.68860	986.26172	1080.34448	-949.01239	1130.60510	1321.83008	-958.98999	1182.31238	1158.64844	-892.65460	946.13171	1211.05078	-1106.50659	1108.24512	1366.67322	-1186.87744	1165.57935	1188.89746	-1198.47168	1224.10486	1080.52942	-1183.24365	1307.22998	981.89813	-1140.34827	1373.63586	889.06714	-1194.67224	1365.08154	884.15881	-1176.72900	1421.85962	826.59753	-797.39539	1056.36340	1332.29553	-744.79663	1034.99927	1105.15332	-736.89758	1040.48474	992.03186	-740.86713	1043.97546	854.66821	-771.67737	1074.46301	758.58917	-740.67743	1030.72510	754.43628	-745.55402	1050.93628	683.09821	-1092.93762	1154.01819	923.84216	-853.58948	1152.03662	914.93976	-1040.78650	991.47174	948.24457	-892.06812	991.51581	942.74048	-1132.31104	1048.57556	631.65155	-1096.60181	1004.59161	457.83051	-1103.50403	901.66632	287.39319	-1066.74536	821.74823	90.54424	-1033.48474	772.47302	65.64885	-1036.22253	962.52386	28.73589	-810.52991	1152.39636	620.18195	-856.47552	1238.01392	463.78137	-857.70856	1266.54370	280.43921	-904.34729	1337.26257	74.09509	-963.86426	1313.92542	34.41171	-906.32605	1482.93848	80.54765	-951.81873	1053.38184	1658.39209																		 
186	1.850	-984.45355	1165.32349	1610.17505	-854.70660	1136.91809	1605.05725	-1009.38983	1045.91040	1552.37183	-881.18536	1022.95367	1547.40356	-964.25922	1019.99670	1390.93518	-973.29480	1000.03845	1078.44763	-947.54169	1144.17517	1320.05103	-957.93591	1196.00635	1156.94983	-890.80804	959.75854	1209.09387	-1104.75635	1120.89111	1365.10535	-1184.96045	1179.93445	1188.31384	-1196.31250	1239.90393	1080.88428	-1180.12305	1325.70056	984.97058	-1135.89722	1394.85571	894.96741	-1190.13904	1386.51282	888.98657	-1171.47595	1445.35828	834.06317	-795.67493	1070.39075	1330.39185	-743.71368	1046.83154	1103.26843	-735.99896	1050.60364	990.07214	-739.94196	1051.03052	852.71625	-770.78619	1079.28625	755.67749	-739.94611	1035.04004	752.59576	-745.36713	1052.94580	680.56104	-1091.98572	1167.25525	922.59796	-852.78253	1167.01538	913.09857	-1038.11475	1004.76917	946.40076	-889.32776	1006.14038	940.69336	-1132.18103	1059.86255	631.25366	-1097.18567	1014.97656	457.19525	-1104.07056	908.43933	288.55893	-1067.70715	823.84717	93.67194	-1034.52209	773.88977	69.93566	-1036.36145	962.74213	28.62960	-808.94543	1164.29468	616.84552	-856.48706	1251.93835	461.93121	-857.75983	1284.26819	279.84064	-904.31769	1359.96179	74.85979	-964.11450	1338.12488	34.81470	-904.67792	1505.79944	84.00575	-950.00336	1067.06299	1656.90649																		 
187	1.860	-982.17218	1178.88745	1608.66858	-852.44531	1150.29553	1603.17078	-1007.43988	1059.40259	1551.07288	-879.23730	1036.43958	1545.78455	-962.01276	1033.58557	1389.09375	-971.05029	1013.96643	1076.65515	-945.96613	1157.81812	1318.40625	-956.67041	1209.91174	1155.45435	-888.88116	973.57050	1207.18982	-1102.91052	1133.60938	1363.69495	-1182.83447	1194.11902	1187.67700	-1194.34241	1255.05164	1081.11963	-1177.11597	1343.42163	988.01831	-1131.44604	1415.27881	900.98218	-1185.58020	1407.17395	893.90820	-1166.17224	1467.92273	841.58789	-793.77704	1084.39636	1328.53552	-742.83124	1058.34875	1101.49011	-735.17316	1060.50781	988.19110	-738.99438	1058.47656	851.02496	-769.89270	1084.55676	753.21777	-739.11798	1040.17566	751.17651	-745.23743	1055.61121	678.41876	-1091.00562	1180.65918	921.30438	-851.77228	1181.87866	911.38806	-1035.39941	1018.27985	944.68304	-886.71753	1020.75836	938.91266	-1131.85193	1071.81384	630.76141	-1097.77563	1026.06604	456.46408	-1104.70410	915.78296	289.79095	-1068.74414	826.25586	97.08189	-1035.65051	775.61749	74.74173	-1036.41089	962.99164	28.50956	-808.31964	1178.75232	614.81165	-856.16748	1266.92053	460.88028	-857.62836	1300.88391	279.00125	-904.57153	1378.40076	74.71500	-964.78271	1357.13538	34.51373	-904.14948	1524.16760	84.72694	-947.67279	1080.65747	1655.36194																		 
188	1.870	-979.86798	1192.46960	1607.26550	-850.19659	1163.71570	1601.43774	-1005.44348	1072.93054	1549.94482	-877.37292	1049.67712	1544.26929	-959.96741	1047.03711	1387.43176	-968.94855	1028.18115	1074.91431	-944.23706	1171.50342	1316.93188	-955.16052	1223.99658	1154.16162	-886.82745	987.51447	1205.33630	-1100.99890	1146.40576	1362.40405	-1180.74011	1208.24219	1187.09131	-1192.44897	1269.55396	1081.04419	-1174.20935	1360.40979	990.96704	-1127.00281	1434.90161	907.03668	-1181.05261	1427.04175	898.82782	-1160.90613	1489.56616	849.04486	-791.85907	1098.43481	1326.97803	-741.44092	1070.62537	1100.02112	-733.65479	1071.24475	986.86517	-738.07666	1066.31067	849.68500	-768.99762	1090.35461	751.13208	-738.16357	1046.13892	750.19977	-745.13287	1058.96606	676.71112	-1089.84900	1194.43530	920.03809	-850.50684	1196.64368	909.78528	-1032.88403	1032.20911	943.16980	-884.37030	1035.44849	937.36017	-1131.20886	1084.53455	630.04663	-1098.38843	1038.03247	455.73148	-1105.45813	923.79211	291.11215	-1069.79578	829.04114	100.91028	-1036.81604	777.82465	80.16862	-1036.52429	963.25635	28.30336	-808.28357	1195.25903	613.88104	-855.48083	1282.80676	460.59650	-857.77063	1316.34009	277.81497	-905.43658	1392.42371	73.23642	-965.72632	1370.99341	33.32454	-904.84454	1538.20703	82.52215	-945.23749	1094.25916	1653.94666																		 
189	1.880	-977.54492	1205.95032	1605.96802	-847.91895	1177.13818	1599.92297	-1003.41077	1086.40674	1548.89868	-875.35822	1063.10547	1542.97192	-957.78558	1060.60205	1385.82581	-967.05847	1042.55408	1073.29871	-942.35736	1185.20459	1315.66443	-953.40582	1238.19885	1153.14563	-884.69672	1001.51276	1203.59094	-1099.06763	1159.30432	1361.21118	-1178.65308	1222.07495	1186.49597	-1190.76855	1283.55884	1080.91052	-1171.37109	1376.72913	993.81342	-1122.68591	1453.75879	913.08368	-1176.55420	1446.10315	903.72571	-1155.65527	1510.25818	856.44427	-789.79181	1112.56177	1325.51453	-739.85052	1083.07471	1098.77014	-732.80225	1082.44812	985.48413	-737.39099	1074.69788	848.17804	-768.20471	1096.65845	749.44098	-737.30304	1052.21936	749.24445	-745.20532	1063.11084	675.26556	-1088.42334	1208.72266	918.87628	-848.88556	1211.77771	908.60974	-1030.65723	1046.68726	941.79578	-882.32446	1050.28528	935.94873	-1130.80176	1098.15259	629.33905	-1099.08337	1050.70667	454.34888	-1106.28638	932.43732	292.56638	-1070.95251	832.33441	105.19240	-1037.94727	780.50073	86.24290	-1036.60510	963.59247	28.11530	-808.54541	1212.58435	613.85797	-854.81921	1300.07605	461.14984	-857.94330	1330.75818	276.33728	-906.89539	1402.80383	70.77968	-967.18689	1380.27295	31.26332	-906.59143	1548.40979	77.50571	-942.57202	1107.77014	1652.42371																		 
190	1.890	-975.27429	1219.52197	1604.92456	-845.66052	1190.53027	1598.60132	-1001.29883	1099.87170	1548.01367	-873.34277	1076.35889	1541.78113	-955.81952	1073.88928	1384.54858	-965.21808	1057.21326	1071.72217	-940.37256	1198.99756	1314.59912	-951.41400	1252.48462	1152.26758	-882.53052	1015.72308	1201.94409	-1097.08582	1172.28882	1360.12183	-1176.72803	1235.43201	1185.71057	-1189.09631	1297.05469	1080.52881	-1168.65845	1392.38684	996.48242	-1118.46094	1471.80029	919.08051	-1172.07471	1464.37256	908.46637	-1150.50891	1530.01245	863.68329	-787.63690	1126.56677	1324.29102	-738.13806	1095.66541	1097.65881	-731.61499	1093.86707	984.42072	-736.41687	1083.61450	847.26740	-767.54144	1103.54895	748.11060	-736.36859	1059.34009	748.68359	-745.38586	1068.23132	674.47992	-1086.77551	1223.42517	917.70380	-846.93738	1227.17310	907.78906	-1028.67712	1061.67688	940.45874	-880.52264	1065.20813	934.68103	-1130.26025	1112.58105	628.35486	-1100.00330	1064.85071	453.45306	-1107.08142	941.89874	294.05240	-1071.99512	836.17377	110.00292	-1038.93091	783.87628	92.95573	-1036.69482	963.98022	27.89367	-808.31360	1230.94714	614.52081	-854.24176	1318.17053	462.12552	-858.17676	1344.35193	274.50751	-908.79980	1410.05933	67.49819	-969.00214	1385.87817	28.82612	-909.13892	1555.37366	70.53575	-939.86310	1121.30176	1651.12427																		 
191	1.900	-972.90582	1232.94092	1603.80566	-843.38562	1203.88196	1597.41016	-999.22162	1113.32153	1547.19250	-871.23932	1089.75464	1540.82275	-953.27753	1087.59668	1382.98560	-963.37988	1072.23584	1069.87317	-938.23291	1212.75989	1313.63391	-949.25238	1266.93030	1151.56494	-880.23926	1030.00623	1200.32202	-1095.03833	1185.38782	1359.04773	-1175.03491	1248.34656	1184.76648	-1187.47021	1310.16138	1079.99805	-1165.96692	1407.45557	999.04730	-1114.29053	1488.98193	924.88757	-1167.63818	1481.80127	912.96417	-1145.36694	1548.80652	870.66260	-785.39252	1140.57446	1323.25159	-736.31000	1108.52698	1096.86389	-730.37097	1105.54517	983.58167	-735.38593	1093.18066	846.61206	-766.97095	1111.20703	747.19452	-735.19092	1066.88452	748.33087	-745.42395	1074.06409	673.73578	-1084.88293	1238.64124	916.63556	-844.74854	1242.91760	907.21753	-1026.69885	1077.16870	939.17896	-878.91815	1080.53992	933.29370	-1129.84509	1127.77356	627.21594	-1101.42517	1080.10034	452.13177	-1108.05688	952.17029	295.65927	-1072.83459	840.54572	115.24382	-1039.56860	788.08594	100.51033	-1036.75281	964.43842	27.66430	-807.39697	1250.35693	615.52802	-853.72266	1336.49219	462.78424	-858.47876	1357.13037	272.31332	-911.08270	1415.23572	63.90061	-971.11127	1388.54944	26.65765	-912.40570	1559.98535	61.80369	-937.73041	1134.84143	1650.30847																		 
